<?xml version="1.0" encoding="UTF-8"?>
<svg version="1.1" xmlns="http://www.w3.org/2000/svg" width="371" height="371">
<path d="M0 0 C2.31916355 -0.0029969 4.6383266 -0.00640065 6.95748901 -0.01017761 C13.21959822 -0.01896365 19.48169373 -0.02135332 25.74380851 -0.0219934 C29.66135343 -0.0227065 33.57889492 -0.02484563 37.49643898 -0.02749062 C50.47299911 -0.03624802 63.4495496 -0.04091257 76.42611255 -0.04016014 C77.1232249 -0.04012019 77.82033725 -0.04008023 78.53857422 -0.04003906 C79.23654748 -0.03999818 79.93452075 -0.0399573 80.65364472 -0.03991518 C91.97792533 -0.03950828 103.30217276 -0.04909416 114.62644377 -0.06317743 C126.28528092 -0.07756132 137.94410038 -0.08426371 149.60294658 -0.08358365 C156.13624456 -0.08332911 162.66950487 -0.08615703 169.20279503 -0.0967617 C175.34326249 -0.10645851 181.48365635 -0.10651097 187.62412643 -0.09924507 C189.87226151 -0.0982015 192.12040121 -0.10054857 194.36852837 -0.10660553 C197.44687707 -0.11436001 200.52497371 -0.10965796 203.60331726 -0.10197449 C204.92416298 -0.10968983 204.92416298 -0.10968983 206.27169245 -0.11756104 C217.08177949 -0.05829607 226.26047363 2.15886454 235.8293457 7.14526367 C236.66336914 7.56549805 237.49739258 7.98573242 238.35668945 8.41870117 C253.89047611 16.90952295 263.6656529 31.52329387 268.8293457 48.14526367 C269.83115081 52.986585 269.97526427 57.71358587 269.9697876 62.63783264 C269.97424428 63.89970694 269.97424428 63.89970694 269.978791 65.18707365 C269.98744465 67.99874937 269.98898343 70.81038234 269.99047852 73.62207031 C269.99510913 75.64124644 270.00013412 77.6604217 270.00552368 79.67959595 C270.01862809 85.16134333 270.02508907 90.64307847 270.02953434 96.12483907 C270.03246883 99.55322829 270.03657439 102.9816142 270.04103851 106.41000175 C270.05470961 117.14692642 270.06437761 127.88384347 270.0682404 138.62077624 C270.07271734 150.99535513 270.09025002 163.36982336 270.119241 175.74436861 C270.14089595 185.32168586 270.15094676 194.89897207 270.15228152 204.47631353 C270.15332701 210.19045517 270.15918002 215.90449272 270.17710114 221.61860847 C270.1936473 226.99896912 270.19570563 232.37914819 270.18696213 237.7595253 C270.18619519 239.72623241 270.19048875 241.69294955 270.20042038 243.65963173 C270.265147 257.284084 269.91445048 270.02625429 262.8918457 282.14526367 C262.55733398 282.76014648 262.22282227 283.3750293 261.87817383 284.00854492 C259.84210257 287.67268858 257.6485055 291.03771383 254.8293457 294.14526367 C254.1693457 294.14526367 253.5093457 294.14526367 252.8293457 294.14526367 C252.42522461 295.0327832 252.42522461 295.0327832 252.01293945 295.93823242 C246.68803559 305.8675086 235.01058423 311.65114688 224.84884918 315.2798605 C220.11272843 316.63725384 215.61570497 316.69819769 210.71669006 316.65319824 C209.12270682 316.66255819 209.12270682 316.66255819 207.49652189 316.67210722 C203.96538611 316.68795556 200.43494847 316.67546449 196.90380859 316.6628418 C194.36010844 316.66826654 191.81641143 316.67539118 189.27272034 316.68408203 C183.09850623 316.70039042 176.92454708 316.69805533 170.7503298 316.68643147 C165.72874917 316.67737173 160.70722299 316.67618408 155.68563652 316.68052673 C154.96899766 316.68113967 154.2523588 316.6817526 153.51400362 316.6823841 C152.05782925 316.6836631 150.6016549 316.68495996 149.14548057 316.68627447 C135.5125631 316.69766209 121.87975348 316.68459562 108.2468537 316.663073 C96.56930029 316.64520748 84.891906 316.64830511 73.21435547 316.66674805 C59.62941114 316.68819361 46.04456119 316.6965596 32.4596023 316.68429899 C31.00869176 316.6830249 29.55778121 316.68176741 28.10687065 316.68052673 C27.39313539 316.67990963 26.67940013 316.67929253 25.94403653 316.67865673 C20.93361064 316.67521457 15.923245 316.68100766 10.91282845 316.69044495 C4.15836141 316.70288841 -2.59576047 316.69392569 -9.350214 316.67086792 C-11.82367838 316.66559577 -14.2971681 316.66706886 -16.77062225 316.67591858 C-40.67448358 316.75353372 -40.67448358 316.75353372 -50.1706543 312.14526367 C-51.12102538 311.71055 -52.07139647 311.27583633 -53.05056667 310.82794952 C-67.38629419 304.01495406 -76.53589204 292.55978607 -81.9831543 277.89526367 C-84.53270215 270.60141156 -85.3198511 264.0047166 -85.32455444 256.34898376 C-85.3289367 255.47506581 -85.33331895 254.60114786 -85.337834 253.70074755 C-85.35116597 250.77852345 -85.35738823 247.85632946 -85.36352539 244.93408203 C-85.37143079 242.83608872 -85.37970001 240.73809676 -85.38830566 238.6401062 C-85.41447552 231.75511973 -85.42982846 224.87012732 -85.4440918 217.98510742 C-85.44945358 215.61109476 -85.45483109 213.23708213 -85.46022415 210.86306953 C-85.48184562 200.98487722 -85.50058082 191.1066865 -85.51184654 181.22847652 C-85.52807714 167.09200211 -85.56124213 152.95580289 -85.61824739 138.8194322 C-85.65700121 128.86844729 -85.6764857 118.91753582 -85.68176711 108.96647745 C-85.68541309 103.02868844 -85.69735481 97.09119329 -85.72986984 91.15348625 C-85.76004597 85.56292668 -85.76622812 79.97283734 -85.75448608 74.38221359 C-85.75426615 72.33809082 -85.76250434 70.29394561 -85.78013992 68.24989891 C-85.87357121 56.79077498 -85.47834312 47.54376695 -80.1706543 37.14526367 C-79.80626944 36.41096602 -79.44188457 35.67666838 -79.06645775 34.92011929 C-78.11884841 33.10870648 -77.08572049 31.34271882 -76.0456543 29.58276367 C-75.38307617 28.44709961 -74.72049805 27.31143555 -74.0378418 26.14135742 C-70.98219397 21.23825725 -70.98219397 21.23825725 -69.1706543 19.14526367 C-68.5106543 19.14526367 -67.8506543 19.14526367 -67.1706543 19.14526367 C-67.1706543 18.48526367 -67.1706543 17.82526367 -67.1706543 17.14526367 C-66.5106543 17.14526367 -65.8506543 17.14526367 -65.1706543 17.14526367 C-65.1706543 16.48526367 -65.1706543 15.82526367 -65.1706543 15.14526367 C-44.7976795 -0.23129715 -24.37287101 -0.00631654 0 0 Z M-53.1706543 30.14526367 C-67.03979112 44.91890942 -66.32116647 61.46539763 -66.33178711 80.45532227 C-66.33642311 82.3964192 -66.3414488 84.33751523 -66.34683228 86.27861023 C-66.35987868 91.52453185 -66.36638539 96.77044073 -66.37084293 102.01637602 C-66.37378485 105.29989636 -66.3778916 108.5834133 -66.38234711 111.86693192 C-66.39599849 122.15853685 -66.40567797 132.45013391 -66.409549 142.74174726 C-66.41403106 154.58934331 -66.43159582 166.43682408 -66.46054959 178.28438509 C-66.48220591 187.46690204 -66.4922553 196.64938664 -66.49359012 205.83192885 C-66.49463484 211.30566522 -66.5004724 216.77929286 -66.51840973 222.25300217 C-66.53496001 227.40279352 -66.5370123 232.55239518 -66.52827072 237.70220375 C-66.5275042 239.58344979 -66.53179182 241.46470634 -66.54172897 243.34592628 C-66.62084272 259.26641557 -65.80919996 274.13299246 -54.4831543 286.39526367 C-50.23397674 290.42756449 -45.57581984 292.95947572 -40.1706543 295.14526367 C-39.3591391 295.49136688 -38.5476239 295.83747009 -37.71151733 296.19406128 C-32.78288041 297.51806935 -28.10588874 297.40729761 -23.0246582 297.37231445 C-21.911875 297.37260651 -20.7990918 297.37289856 -19.65258789 297.37319946 C-15.98405082 297.37180904 -12.31571827 297.35626108 -8.6472168 297.34057617 C-6.09988516 297.33684503 -3.55255209 297.33399853 -1.00521851 297.33200073 C5.00825373 297.32515148 11.02163854 297.30939755 17.03507578 297.28930175 C23.88392557 297.26691312 30.73277892 297.25594188 37.58165622 297.24591088 C51.66425978 297.22503041 65.74679874 297.18987299 79.8293457 297.14526367 C80.69694243 293.08999008 80.96162919 289.37103052 80.97460938 285.21533203 C80.97796799 284.53827713 80.9813266 283.86122223 80.98478699 283.16365051 C80.99424529 280.93745057 80.99623717 278.71132618 80.99731445 276.48510742 C81.00052941 274.93241851 81.00389366 273.3797299 81.00740051 271.82704163 C81.01337809 268.5782094 81.0152417 265.32940374 81.01464844 262.08056641 C81.01454662 257.91875033 81.02822515 253.7571041 81.04542065 249.59532833 C81.05653761 246.39115109 81.05856778 243.18701506 81.05803871 239.98282051 C81.05921827 238.44823176 81.06363872 236.91364192 81.07137108 235.37907219 C81.08116967 233.23452679 81.07829418 231.09035216 81.07226562 228.94580078 C81.07369064 227.72622177 81.07511566 226.50664276 81.07658386 225.25010681 C80.83966672 222.27487606 80.50834832 220.58544467 78.8293457 218.14526367 C76.6404039 217.23103549 76.6404039 217.23103549 74.0168457 216.87182617 C73.03280762 216.69031006 72.04876953 216.50879395 71.03491211 216.32177734 C69.9770752 216.13977783 68.91923828 215.95777832 67.8293457 215.77026367 C46.12611384 211.62656776 24.71951045 204.44272941 6.8293457 191.14526367 C5.98629883 190.52393555 5.14325195 189.90260742 4.2746582 189.26245117 C0.94984434 186.74431346 -2.2079008 184.2091888 -5.1081543 181.20776367 C-5.7887793 180.52713867 -6.4694043 179.84651367 -7.1706543 179.14526367 C-7.8306543 179.14526367 -8.4906543 179.14526367 -9.1706543 179.14526367 C-9.56897461 178.29061523 -9.56897461 178.29061523 -9.9753418 177.41870117 C-11.23678173 175.01949189 -12.69242038 172.95513594 -14.2956543 170.77026367 C-30.29557788 148.10370527 -37.65547013 123.48567403 -37.3581543 95.77026367 C-37.35170898 94.5125415 -37.34526367 93.25481934 -37.33862305 91.95898438 C-37.26462152 82.99265918 -36.95844744 74.07827516 -36.1706543 65.14526367 C-20.2398677 59.83500147 9.31726196 75.10398988 23.5793457 82.20776367 C35.32734891 88.29264996 48.22876725 95.31909728 57.5402832 104.90698242 C58.77182491 106.37618342 58.77182491 106.37618342 60.8293457 106.14526367 C60.8293457 106.80526367 60.8293457 107.46526367 60.8293457 108.14526367 C62.26486212 109.34538062 63.70389441 110.54161413 65.1628418 111.71313477 C67.84335478 114.01666379 69.97538652 116.67691767 72.1418457 119.45776367 C72.61041992 120.05661377 73.07899414 120.65546387 73.56176758 121.27246094 C80.2946845 130.11795582 85.59324972 139.88596871 89.8293457 150.14526367 C93.59285278 147.63625895 94.63750328 144.67997364 96.4543457 140.70776367 C100.01542863 133.27341148 104.27604723 127.26910651 109.8293457 121.14526367 C110.5615332 120.29448242 111.2937207 119.44370117 112.0480957 118.56713867 C124.85543432 103.86575702 140.00822446 92.19987724 157.72753906 84.10864258 C159.2204333 83.42436326 160.70488281 82.72152587 162.18310547 82.00610352 C169.63358178 78.46917103 177.27683585 75.80253744 185.09912109 73.2331543 C187.26256475 72.52167153 189.42204282 71.79903067 191.58129883 71.07495117 C201.81240059 67.66902215 212.07275071 64.36760401 222.8293457 63.14526367 C222.76875977 64.06178711 222.70817383 64.97831055 222.64575195 65.92260742 C222.55980475 67.30924549 222.47532824 68.69597504 222.3918457 70.08276367 C222.34527832 70.85475098 222.29871094 71.62673828 222.25073242 72.42211914 C221.94071456 77.98877881 221.76040073 83.55194142 221.64575195 89.12573242 C221.61323348 90.56136329 221.58059875 91.99699152 221.54785156 93.43261719 C221.49934364 95.57455561 221.45507989 97.71607236 221.42605591 99.85836792 C221.00868115 130.3919827 210.49221083 157.42544016 189.4152832 179.69604492 C164.32804601 203.45691761 133.54900619 210.96534855 100.8293457 219.14526367 C100.8293457 244.88526367 100.8293457 270.62526367 100.8293457 297.14526367 C117.20141433 297.17443281 117.20141433 297.17443281 133.57348633 297.1940918 C140.26791188 297.20002955 146.96232354 297.20699164 153.65673828 297.22070312 C159.06437137 297.23170751 164.47198951 297.23757697 169.87963295 297.24014091 C171.92489163 297.241964 173.97014966 297.24552239 176.01540184 297.25099373 C186.39159176 297.27760342 196.76125773 297.20819275 207.13134766 296.82666016 C208.37622468 296.79351385 208.37622468 296.79351385 209.64625072 296.75969791 C222.03116103 296.21543871 231.691254 291.83004776 240.1418457 282.77026367 C243.45484213 278.85131163 245.96213411 274.92421612 247.8293457 270.14526367 C248.16289062 269.31518799 248.49643555 268.4851123 248.84008789 267.62988281 C250.10665889 263.16843959 250.29661798 258.99105495 250.4465332 254.37182617 C250.48406708 253.34239899 250.52160095 252.3129718 250.56027222 251.25234985 C251.11690288 233.6836258 250.981693 216.09539613 250.9543457 198.52026367 C250.95176725 196.52954102 250.94919364 194.53881837 250.94662476 192.5480957 C250.930174 181.01520054 250.89918028 169.48238875 250.85979176 157.94955063 C250.83411048 150.2533985 250.81915012 142.55726843 250.80737305 134.86108398 C250.79140452 125.08125979 250.75440271 115.30173101 250.69404221 105.52207756 C250.66227678 100.33967669 250.63821273 95.15754006 250.63433838 89.97503662 C250.63013229 85.10459545 250.602034 80.23485573 250.55603981 75.36463547 C250.54316287 73.58375491 250.53855447 71.80279082 250.54315758 70.02186966 C250.57342642 54.99466102 247.68771981 43.47192187 237.0559082 32.27807617 C221.15710352 17.15798846 197.94742819 18.99425514 177.59155273 19.01586914 C175.44356252 19.01451247 173.29557255 19.01273104 171.14758301 19.01055908 C165.33762363 19.00601588 159.52768209 19.00776163 153.71772242 19.01093817 C147.62194427 19.01347853 141.52616761 19.01111951 135.4303894 19.009552 C125.19341764 19.00773492 114.95645309 19.01012423 104.71948242 19.01489258 C92.90717143 19.0203314 81.09487771 19.01857344 69.28256714 19.01306617 C59.11916746 19.00851843 48.95577296 19.00789271 38.79237258 19.01050484 C32.73181938 19.01205885 26.67127427 19.01228552 20.61072159 19.00896835 C14.90941821 19.00606558 9.20813694 19.00810933 3.50683594 19.01386261 C1.42241324 19.01517747 -0.66201133 19.01481791 -2.74643326 19.01259995 C-29.64925739 18.38144659 -29.64925739 18.38144659 -53.1706543 30.14526367 Z " fill="#132226" transform="translate(94.170654296875,29.854736328125)"/>
<path d="M0 0 C0.24548872 17.94795295 -0.78006184 35.31018945 -8 52 C-8.66 52 -9.32 52 -10 52 C-10.0928125 52.71800781 -10.185625 53.43601563 -10.28125 54.17578125 C-11.65942876 59.59112497 -15.596678 63.6727521 -19 68 C-19.62648438 68.83015625 -20.25296875 69.6603125 -20.8984375 70.515625 C-34.62328534 87.33263223 -57.10468009 97.41973487 -77.75097656 102.44873047 C-80.02552744 103.00625716 -82.29010689 103.59477073 -84.5546875 104.19140625 C-95.34887404 107 -95.34887404 107 -100 107 C-97.71464613 80.77106499 -91.58659167 58.36811197 -73 39 C-71.9122611 37.6702583 -70.82871431 36.33707305 -69.75 35 C-55.58672133 19.05036185 -33.93094049 9.5216051 -14 3 C-12.99066406 2.66355469 -11.98132813 2.32710938 -10.94140625 1.98046875 C-7.01790894 0.73337744 -4.16762598 0 0 0 Z " fill="#A6C8AC" transform="translate(295,121)"/>
<path d="M0 0 C5.75868723 -0.33295958 10.06548371 0.73851595 15.4375 2.75 C16.14970703 3.00265625 16.86191406 3.2553125 17.59570312 3.515625 C35.22893024 9.92188372 51.89166412 20.64626626 65 34 C66.22396484 35.15435547 66.22396484 35.15435547 67.47265625 36.33203125 C72.80315918 41.41336209 77.04704744 46.79606056 81 53 C81.598125 53.91523438 82.19625 54.83046875 82.8125 55.7734375 C87.62752024 63.5148278 90.48528042 71.30653583 93 80 C93.2475 80.80050781 93.495 81.60101563 93.75 82.42578125 C95.65544771 89.45211969 95.17113052 96.78399648 95 104 C88.64504813 104.2503689 83.10022639 103.39102842 76.9375 101.875 C76.01501465 101.64981689 75.0925293 101.42463379 74.14208984 101.19262695 C66.0792809 99.14925478 58.55897815 96.50922858 51 93 C50.37399902 92.71286133 49.74799805 92.42572266 49.10302734 92.12988281 C34.31625333 85.22714955 19.82258087 73.57290766 12 59 C12 58.34 12 57.68 12 57 C11.34 57 10.68 57 10 57 C5.62512102 46.42837462 1.86911865 36.33433549 0 25 C-0.19529297 23.93652344 -0.19529297 23.93652344 -0.39453125 22.8515625 C-1.52949097 15.67861705 -2.29877552 6.89632656 0 0 Z " fill="#A8C5AC" transform="translate(79,122)"/>
<path d="M0 0 C6.66173996 4.05434927 12.62104279 9.85991313 14.625 17.5 C15.92764395 26.64308581 14.23882179 32.55867439 9.3515625 40.33203125 C8.78179687 41.04746094 8.21203125 41.76289062 7.625 42.5 C6.965 42.5 6.305 42.5 5.625 42.5 C5.625 43.16 5.625 43.82 5.625 44.5 C3.98046875 45.75390625 3.98046875 45.75390625 1.8125 47.0625 C1.10480469 47.49691406 0.39710938 47.93132812 -0.33203125 48.37890625 C-5.94625728 51.45975304 -12.36738101 51.15240309 -18.55859375 50.14453125 C-25.66492118 48.01406287 -31.16525765 42.28559079 -34.83203125 36.00390625 C-37.93794768 28.96895065 -38.59916054 22.48714549 -36.0625 15.1875 C-34.84478992 12.30979834 -33.55906548 9.77902485 -31.375 7.5 C-30.715 7.5 -30.055 7.5 -29.375 7.5 C-29.375 6.84 -29.375 6.18 -29.375 5.5 C-28.715 5.5 -28.055 5.5 -27.375 5.5 C-27.375 4.84 -27.375 4.18 -27.375 3.5 C-19.43024203 -2.3850059 -9.28226241 -4.0827308 0 0 Z M-19.375 21.5 C-20.61401711 23.37092681 -20.61401711 23.37092681 -20.375 25.5 C-18.61607963 28.53262133 -16.85309712 31.02190288 -14.375 33.5 C-12.00485808 34.16840854 -12.00485808 34.16840854 -9.375 33.5 C-6.11306614 30.4555284 -4.63959928 28.79653646 -3.75 24.4375 C-4.60082607 20.43861747 -6.14329822 18.94173023 -9.375 16.5 C-14.30730578 15.26692356 -16.35331615 17.80683085 -19.375 21.5 Z " fill="#0E2023" transform="translate(196.375,72.5)"/>
<path d="M0 0 C5.75868723 -0.33295958 10.06548371 0.73851595 15.4375 2.75 C16.14970703 3.00265625 16.86191406 3.2553125 17.59570312 3.515625 C35.22893024 9.92188372 51.89166412 20.64626626 65 34 C66.22396484 35.15435547 66.22396484 35.15435547 67.47265625 36.33203125 C72.80315918 41.41336209 77.04704744 46.79606056 81 53 C81.598125 53.91523438 82.19625 54.83046875 82.8125 55.7734375 C87.62752024 63.5148278 90.48528042 71.30653583 93 80 C93.2475 80.80050781 93.495 81.60101563 93.75 82.42578125 C95.65544771 89.45211969 95.17113052 96.78399648 95 104 C90.1666528 104.08333357 85.76307437 103.95261487 81 103 C82.32 102.67 83.64 102.34 85 102 C84.66369432 90.59923728 82.72258621 80.05496635 80 69 C79.34 69 78.68 69 78 69 C77.82984375 68.41992188 77.6596875 67.83984375 77.484375 67.2421875 C75.93068136 62.23400482 74.1800663 58.24008841 71 54 C70.319375 53.071875 69.63875 52.14375 68.9375 51.1875 C67.11258498 48.75947113 67.11258498 48.75947113 64 48 C60.25061798 44.53664049 56.95179125 40.72481351 53.6875 36.8125 C53.23310547 36.27947266 52.77871094 35.74644531 52.31054688 35.19726562 C49 31.23954417 49 31.23954417 49 29 C48.42121094 28.87238281 47.84242187 28.74476563 47.24609375 28.61328125 C42.57138931 27.33688369 38.2985422 25.06547052 34.5625 22 C31.63532521 19.71537577 28.73457375 18.44279238 25.33203125 17.00390625 C22.46343039 15.76901442 19.70343593 14.36250921 16.92578125 12.9375 C15.00142718 12.00069477 13.05502669 11.21665504 11.0625 10.4375 C10.051875 9.963125 9.04125 9.48875 8 9 C7.67 8.01 7.34 7.02 7 6 C5.37051936 4.77554716 5.37051936 4.77554716 3.4375 3.8125 C2.303125 3.214375 1.16875 2.61625 0 2 C0 1.34 0 0.68 0 0 Z " fill="#566B5E" transform="translate(79,122)"/>
<path d="M0 0 C3.97668822 3.18999555 6.24881961 6.42748184 7.0625 11.5 C7.32856856 17.29438198 5.39405484 21.2961552 1.75 25.75 C-3.01557375 29.64910579 -7.70475102 31.62616904 -13.953125 31.34765625 C-19.13605612 30.46734925 -23.40267482 27.98486658 -26.9375 24.125 C-30.03207844 19.43624479 -30.32106709 15.99275606 -29.4375 10.5625 C-27.98681603 4.7597641 -24.74231089 0.70467975 -19.6875 -2.4375 C-12.8427199 -3.87012839 -6.12601608 -3.61640865 0 0 Z " fill="#112126" transform="translate(254,273)"/>
<path d="M0 0 C4.47797368 1.99909539 7.05691071 4.60116513 9.3046875 9.01171875 C10.82276152 13.35272816 10.8488669 17.61554242 9.3046875 21.953125 C6.7705307 26.85107512 2.95418007 30.52290997 -2 33 C-6.95482094 33.54360446 -10.87125852 33.56437074 -15.375 31.3125 C-19.97511172 27.26002063 -22.7028145 24.03129213 -23.3125 17.8125 C-22.80297941 11.59634885 -20.31614138 6.98498799 -16 2.5 C-11.22462164 -1.27492112 -5.77914039 -0.92434095 0 0 Z " fill="#101E23" transform="translate(135,271)"/>
<path d="M0 0 C0 0.66 0 1.32 0 2 C0.5775 2.185625 1.155 2.37125 1.75 2.5625 C5.05324934 4.6729093 6.66544857 7.40488186 8 11 C8.79690945 15.59019843 8.44932919 18.9841253 6.5625 23.25 C2.42964064 27.6852637 -2.3343274 30.1295763 -8.0625 32 C-13.76860252 32 -17.68471675 30.20091079 -21.875 26.375 C-24.46834127 22.25616386 -26.07891633 18.92437869 -26 14 C-24.02464981 7.42853797 -20.64463796 2.80399515 -15 -1 C-9.66353134 -2.77882289 -5.04741524 -2.44723163 0 0 Z " fill="#0E1E24" transform="translate(311,225)"/>
<path d="M0 0 C6.46543621 2.60886023 9.98770742 6.73059955 13 13 C13.84994066 17.92965581 12.96349306 21.1150679 10.27734375 25.359375 C7.48108394 28.95090136 4.36274687 31.54575104 0 33 C-5.9262732 33.59722133 -10.80516254 33.1576463 -16 30 C-19.45440076 25.93661673 -21 21.322181 -21 16 C-18.90502537 9.55487216 -14.96152187 5.2601088 -9.625 1.1875 C-6.1130059 -0.40125924 -3.82772531 -0.46196685 0 0 Z " fill="#0D1F26" transform="translate(74,223)"/>
<path d="M0 0 C3.7728357 1.66168215 6.19247892 4.11433171 8.9375 7.125 C10.63936327 11.7300418 10.63377342 16.1576862 10 21 C7.70203056 25.86108919 4.86108919 28.70203056 0 31 C-5.35110529 31.78153252 -9.58003397 31.7228918 -14.4375 29.25 C-19.26716554 25.00931807 -21.65492693 22.908473 -22.4375 16.3125 C-22.37823219 10.94876318 -19.50100627 7.80397796 -16 4 C-15.278125 3.175 -14.55625 2.35 -13.8125 1.5 C-9.30807727 -0.90235879 -4.98071095 -0.82773993 0 0 Z " fill="#122125" transform="translate(308,273)"/>
<path d="M0 0 C5.35374983 2.17779654 8.34271648 4.80189499 11.18359375 9.85546875 C12.56497966 13.48408533 12.22738245 16.36839194 11 20 C9.81873581 22.49010491 8.50160349 24.67493653 7 27 C6.34 27 5.68 27 5 27 C5 27.66 5 28.32 5 29 C0.00225433 31.98908234 -5.35696884 31.61189494 -11 31 C-15.50397908 28.86653622 -17.98482656 26.56065568 -20 22 C-21.48779958 16.74310816 -20.96446243 13.56943598 -18.3828125 8.9296875 C-13.64720289 2.32123794 -8.20005379 -1.02500672 0 0 Z " fill="#0B1A21" transform="translate(75,273)"/>
<path d="M0 0 C0.24548872 17.94795295 -0.78006184 35.31018945 -8 52 C-8.66 52 -9.32 52 -10 52 C-10.0928125 52.71800781 -10.185625 53.43601563 -10.28125 54.17578125 C-11.65942876 59.59112497 -15.596678 63.6727521 -19 68 C-19.62648438 68.83015625 -20.25296875 69.6603125 -20.8984375 70.515625 C-29.71614854 81.31993497 -42.56742966 88.47593022 -54.8125 94.8125 C-55.46355713 95.15619629 -56.11461426 95.49989258 -56.78540039 95.85400391 C-59.73885098 97.30842803 -61.6380968 98.03690933 -64.94921875 97.69921875 C-65.62597656 97.46847656 -66.30273438 97.23773438 -67 97 C-67 96.67 -67 96.34 -67 96 C-64.36 95.67 -61.72 95.34 -59 95 C-59 94.34 -59 93.68 -59 93 C-56.515625 91.34375 -56.515625 91.34375 -53.25 89.5 C-52.18265625 88.8915625 -51.1153125 88.283125 -50.015625 87.65625 C-47 86 -47 86 -44.73828125 84.9765625 C-42.63898117 83.97168821 -42.63898117 83.97168821 -40.9375 80.875 C-40.298125 79.92625 -39.65875 78.9775 -39 78 C-38.01 78 -37.02 78 -36 78 C-35.566875 76.824375 -35.566875 76.824375 -35.125 75.625 C-34 73 -34 73 -32 71 C-31.01 71 -30.02 71 -29 71 C-28.74863281 70.44570312 -28.49726563 69.89140625 -28.23828125 69.3203125 C-26.79312303 66.61235042 -25.04839161 64.31586357 -23.1875 61.875 C-18.85206139 55.99456873 -15.31591443 49.9477433 -13 43 C-12.34 43 -11.68 43 -11 43 C-10.855625 42.21625 -10.71125 41.4325 -10.5625 40.625 C-10 38 -10 38 -9 36 C-7.0947358 24.97171889 -6.75136542 14.16093021 -7 3 C-7.99 2.67 -8.98 2.34 -10 2 C-6.38026598 0.68373308 -3.90432869 0 0 0 Z " fill="#698B78" transform="translate(295,121)"/>
<path d="M0 0 C8.57210522 3.80137704 14.09240076 12.3548284 19 20 C19.89912109 21.37478516 19.89912109 21.37478516 20.81640625 22.77734375 C25.62755326 30.5188222 28.48575291 38.30816925 31 47 C31.2475 47.80050781 31.495 48.60101563 31.75 49.42578125 C33.65544771 56.45211969 33.17113052 63.78399648 33 71 C30.36 71 27.72 71 25 71 C26.485 70.01 26.485 70.01 28 69 C27.67 68.01 27.34 67.02 27 66 C26.931009 63.93854893 26.91532273 61.87498599 26.9375 59.8125 C26.94652344 58.72582031 26.95554688 57.63914063 26.96484375 56.51953125 C26.97644531 55.68808594 26.98804688 54.85664063 27 54 C26.34 54 25.68 54 25 54 C24.79503906 52.87980469 24.59007812 51.75960937 24.37890625 50.60546875 C24.10688311 49.13279176 23.83474151 47.66013664 23.5625 46.1875 C23.42779297 45.44951172 23.29308594 44.71152344 23.15429688 43.95117188 C22.58580263 40.88684924 21.98690349 37.96071047 21 35 C20.34 35 19.68 35 19 35 C18.74605469 34.32453125 18.49210937 33.6490625 18.23046875 32.953125 C17.88628906 32.06109375 17.54210937 31.1690625 17.1875 30.25 C16.68283203 28.92742187 16.68283203 28.92742187 16.16796875 27.578125 C15.03112171 25.06869674 13.6558864 23.18254368 12 21 C12 20.34 12 19.68 12 19 C11.01 18.67 10.02 18.34 9 18 C7.04457812 15.01540871 7 13.73585209 7 10 C6.13375 9.87625 6.13375 9.87625 5.25 9.75 C2.25477417 8.75159139 0.88914852 7.51886469 -1 5 C-0.75 2.25 -0.75 2.25 0 0 Z " fill="#536F63" transform="translate(141,155)"/>
<path d="M0 0 C1.32 0 2.64 0 4 0 C4 0.66 4 1.32 4 2 C5.11375 2.1546875 5.11375 2.1546875 6.25 2.3125 C9.22365686 3.05591421 10.76701758 3.92651632 13 6 C13.33 6.99 13.66 7.98 14 9 C15.75397955 10.85356471 15.75397955 10.85356471 17.875 12.625 C18.57367188 13.23601562 19.27234375 13.84703125 19.9921875 14.4765625 C22.02136344 16.1857412 22.02136344 16.1857412 25 17 C25.84375 18.7421875 25.84375 18.7421875 26.5 20.875 C27.50303888 24.11099447 28.58154373 25.66392424 31 28 C32.10834059 29.61531877 33.16852585 31.26436961 34.1875 32.9375 C34.71730469 33.79214844 35.24710938 34.64679688 35.79296875 35.52734375 C37 38 37 38 37 42 C37.66 42 38.32 42 39 42 C41.43818936 45.65728405 41.6716692 48.93287895 42.125 53.1875 C42.21136719 53.93708984 42.29773438 54.68667969 42.38671875 55.45898438 C42.59838382 57.30517412 42.80015464 59.15249344 43 61 C43.66 61 44.32 61 45 61 C45.06058594 61.81984375 45.12117188 62.6396875 45.18359375 63.484375 C45.26738281 64.56203125 45.35117188 65.6396875 45.4375 66.75 C45.51871094 67.81734375 45.59992188 68.8846875 45.68359375 69.984375 C45.94913876 73.1931585 45.94913876 73.1931585 47 77 C43.7 77 40.4 77 37 77 C38.98 76.505 38.98 76.505 41 76 C40.66369432 64.59923728 38.72258621 54.05496635 36 43 C35.34 43 34.68 43 34 43 C33.82984375 42.41992188 33.6596875 41.83984375 33.484375 41.2421875 C31.93068136 36.23400482 30.1800663 32.24008841 27 28 C26.319375 27.071875 25.63875 26.14375 24.9375 25.1875 C23.11258498 22.75947113 23.11258498 22.75947113 20 22 C16.25061798 18.53664049 12.95179125 14.72481351 9.6875 10.8125 C9.23310547 10.27947266 8.77871094 9.74644531 8.31054688 9.19726562 C5 5.23954417 5 5.23954417 5 3 C4.360625 2.87625 3.72125 2.7525 3.0625 2.625 C2.381875 2.41875 1.70125 2.2125 1 2 C0.67 1.34 0.34 0.68 0 0 Z " fill="#6E907B" transform="translate(123,148)"/>
<path d="M0 0 C3.62528568 -0.20140476 5.86501708 0.14223235 9 2 C9 2.99 9 3.98 9 5 C9.71285156 5.18175781 10.42570312 5.36351563 11.16015625 5.55078125 C16.67377458 6.99782778 21.83338642 8.58891366 27 11 C27 11.66 27 12.32 27 13 C27.825 13.20625 28.65 13.4125 29.5 13.625 C35.75223085 16.08123355 41.07861231 19.79205115 44 26 C39.73722093 25.61247463 37.31062551 23.86558607 33.94921875 21.328125 C31.21193264 19.46304027 28.30581862 18.25047626 25.26171875 16.96875 C22.41505734 15.74945461 19.6800076 14.35048987 16.92578125 12.9375 C15.00142718 12.00069477 13.05502669 11.21665504 11.0625 10.4375 C10.051875 9.963125 9.04125 9.48875 8 9 C7.67 8.01 7.34 7.02 7 6 C5.37051936 4.77554716 5.37051936 4.77554716 3.4375 3.8125 C2.303125 3.214375 1.16875 2.61625 0 2 C0 1.34 0 0.68 0 0 Z " fill="#6A7F73" transform="translate(79,122)"/>
<path d="M0 0 C0.22736375 16.62281651 -1.39861099 31.07342107 -6 47 C-6.33 47 -6.66 47 -7 47 C-7.08771872 40.41134984 -7.16084939 33.87445519 -6.5 27.3125 C-5.68717476 18.89804151 -5.92050925 10.44368416 -6 2 C-6.99 1.67 -7.98 1.34 -9 1 C-5.846632 0.29925156 -3.27275026 0 0 0 Z " fill="#56776B" transform="translate(295,121)"/>
<path d="M0 0 C0.66 0.33 1.32 0.66 2 1 C-1.89064669 4.98377388 -5.78293716 8.86980182 -10.0625 12.4375 C-14.37996693 16.16583889 -17.6495331 20.40591002 -21 25 C-21.67289063 25.89203125 -22.34578125 26.7840625 -23.0390625 27.703125 C-27.18647481 33.26407483 -30.75937248 38.87472297 -34 45 C-34.98994188 46.67266041 -35.98432193 48.34284104 -37 50 C-37.66 49.67 -38.32 49.34 -39 49 C-35.61081763 37.70272542 -28.67622265 27.81021008 -21 19 C-20.278125 18.15695313 -19.55625 17.31390625 -18.8125 16.4453125 C-6.23631974 2.07877325 -6.23631974 2.07877325 0 0 Z " fill="#111A1B" transform="translate(224,132)"/>
<path d="M0 0 C0.66 0 1.32 0 2 0 C2.66 1.65 3.32 3.3 4 5 C4.66 5 5.32 5 6 5 C8.43818936 8.65728405 8.6716692 11.93287895 9.125 16.1875 C9.21136719 16.93708984 9.29773438 17.68667969 9.38671875 18.45898438 C9.59838382 20.30517412 9.80015464 22.15249344 10 24 C10.66 24 11.32 24 12 24 C12.06058594 24.81984375 12.12117187 25.6396875 12.18359375 26.484375 C12.26738281 27.56203125 12.35117188 28.6396875 12.4375 29.75 C12.51871094 30.81734375 12.59992188 31.8846875 12.68359375 32.984375 C12.94913876 36.1931585 12.94913876 36.1931585 14 40 C10.7 40 7.4 40 4 40 C5.98 39.505 5.98 39.505 8 39 C7.66369432 27.59923728 5.72258621 17.05496635 3 6 C2.34 6 1.68 6 1 6 C0.67 4.02 0.34 2.04 0 0 Z " fill="#769D8B" transform="translate(156,185)"/>
<path d="M0 0 C0.495 0.99 0.495 0.99 1 2 C-0.8712045 6.67801124 -3.4285978 9.52258207 -7 13 C-7.33 13.99 -7.66 14.98 -8 16 C-14.35571905 20.66288798 -21.51984287 24.41320849 -28.5 28.0625 C-29.6240625 28.65160156 -30.748125 29.24070313 -31.90625 29.84765625 C-35.21211099 31.07900599 -36.69631568 31.07862828 -40 30 C-40 29.67 -40 29.34 -40 29 C-36.04 28.505 -36.04 28.505 -32 28 C-32 27.34 -32 26.68 -32 26 C-29.515625 24.34375 -29.515625 24.34375 -26.25 22.5 C-25.18265625 21.8915625 -24.1153125 21.283125 -23.015625 20.65625 C-20 19 -20 19 -17.73828125 17.9765625 C-15.63898117 16.97168821 -15.63898117 16.97168821 -13.9375 13.875 C-13.298125 12.92625 -12.65875 11.9775 -12 11 C-11.01 11 -10.02 11 -9 11 C-8.71125 10.21625 -8.4225 9.4325 -8.125 8.625 C-7 6 -7 6 -5 4 C-4.01 4 -3.02 4 -2 4 C-1.34 2.68 -0.68 1.36 0 0 Z " fill="#89AC96" transform="translate(268,188)"/>
<path d="M0 0 C6.44659047 9.66988571 6.57952569 22.79583675 6 34 C3.36 34 0.72 34 -2 34 C-1.01 33.34 -0.02 32.68 1 32 C0.67 31.01 0.34 30.02 0 29 C-0.08358958 26.78910055 -0.10731764 24.57573922 -0.09765625 22.36328125 C-0.09443359 21.06455078 -0.09121094 19.76582031 -0.08789062 18.42773438 C-0.07953531 17.05598892 -0.07107037 15.68424413 -0.0625 14.3125 C-0.05748335 12.92903805 -0.05292073 11.54557437 -0.04882812 10.16210938 C-0.03702529 6.77469605 -0.02056019 3.38736967 0 0 Z " fill="#4E6663" transform="translate(168,192)"/>
<path d="M0 0 C1.32 0 2.64 0 4 0 C6.94444482 8.83333446 5.0334805 20.27793007 4.125 29.4375 C4.04660889 30.27216797 3.96821777 31.10683594 3.88745117 31.96679688 C3.66771696 33.98759324 3.34345407 35.99651794 3 38 C2.01 38.495 2.01 38.495 1 39 C-1.65598891 43.53731439 -2.86197126 47.922641 -4 53 C-4.66 53 -5.32 53 -6 53 C-6.12375 53.8353125 -6.12375 53.8353125 -6.25 54.6875 C-7.2276457 57.70190759 -8.99309004 59.56738186 -11 62 C-11.495 63.0209375 -11.495 63.0209375 -12 64.0625 C-13.26736215 66.51801416 -14.99204447 68.12590817 -17 70 C-16.8694934 63.86618977 -14.71934593 61.04990469 -10.8515625 56.41015625 C-7.3074668 51.79685024 -4.83498071 46.50494214 -3 41 C-2.34 41 -1.68 41 -1 41 C-0.7834375 39.824375 -0.7834375 39.824375 -0.5625 38.625 C0 36 0 36 1 34 C2.9052642 22.97171889 3.24863458 12.16093021 3 1 C2.01 0.67 1.02 0.34 0 0 Z " fill="#7CA186" transform="translate(285,123)"/>
<path d="M0 0 C3.97796945 1.38302164 6.85932624 3.22850598 10.125 5.875 C11.39730469 6.89207031 11.39730469 6.89207031 12.6953125 7.9296875 C14.8050233 9.82485144 16.40105545 11.66951219 18 14 C17.01 15.32 16.02 16.64 15 18 C12 16 12 16 11 13 C9.16715557 11.87483915 9.16715557 11.87483915 7 11 C4.8125 10.0625 4.8125 10.0625 3 9 C2.67 8.01 2.34 7.02 2 6 C0.50014391 4.33289654 0.50014391 4.33289654 -1 3 C-0.67 2.01 -0.34 1.02 0 0 Z " fill="#516C5C" transform="translate(124,141)"/>
<path d="M0 0 C0.99 0.33 1.98 0.66 3 1 C-0.03370412 4.62564638 -3.02110225 8.05003392 -6.5 11.25 C-10.25465662 14.88836194 -12.37461734 19.07013799 -14.640625 23.7421875 C-16 26 -16 26 -19 27 C-17.09528915 19.76209878 -12.8267246 12.70789775 -8 7 C-7.34 7 -6.68 7 -6 7 C-6 6.34 -6 5.68 -6 5 C-5.34 5 -4.68 5 -4 5 C-4 4.34 -4 3.68 -4 3 C-2.1875 1.3125 -2.1875 1.3125 0 0 Z " fill="#121918" transform="translate(33,42)"/>
<path d="M0 0 C8.1574488 0.15994998 14.08582838 3.94656689 21 8 C21.804375 8.44988281 22.60875 8.89976562 23.4375 9.36328125 C27.95632344 11.99070321 30.87709303 14.80359376 34 19 C31.14408777 18.02083009 29.08352967 17.06960806 26.75 15.125 C23.73485283 12.79511355 20.82053736 11.47914515 17.33203125 10.00390625 C15.1319351 9.05679618 13.00767243 8.02661233 10.875 6.9375 C7.31029892 5.12651733 3.69044484 3.53768535 0 2 C0 1.34 0 0.68 0 0 Z " fill="#8CA792" transform="translate(87,129)"/>
<path d="M0 0 C3.94638706 5.98762174 3.17288792 13.94806041 1.8125 20.75 C1.1525 20.75 0.4925 20.75 -0.1875 20.75 C-0.49494141 19.06970703 -0.49494141 19.06970703 -0.80859375 17.35546875 C-1.08061689 15.88279176 -1.35275849 14.41013664 -1.625 12.9375 C-1.82706055 11.83051758 -1.82706055 11.83051758 -2.03320312 10.70117188 C-2.60169737 7.63684924 -3.20059651 4.71071047 -4.1875 1.75 C-4.8475 1.75 -5.5075 1.75 -6.1875 1.75 C-6.1875 1.09 -6.1875 0.43 -6.1875 -0.25 C-3.48930246 -1.40637037 -2.59312084 -1.48178334 0 0 Z " fill="#628275" transform="translate(166.1875,188.25)"/>
<path d="M0 0 C2.3828125 0.0234375 2.3828125 0.0234375 5.125 0.375 C6.03507812 0.48585937 6.94515625 0.59671875 7.8828125 0.7109375 C8.58148438 0.80632812 9.28015625 0.90171875 10 1 C10 1.33 10 1.66 10 2 C8.741875 2.103125 7.48375 2.20625 6.1875 2.3125 C2.86042583 2.69609156 2.86042583 2.69609156 0.125 4.5625 C-0.24625 5.036875 -0.6175 5.51125 -1 6 C-1.66 6 -2.32 6 -3 6 C-3.28875 6.7425 -3.5775 7.485 -3.875 8.25 C-5 11 -5 11 -6.125 12.8125 C-7.88573839 17.21434597 -7.48805434 22.53583697 -6 27 C-9.25481368 24.14189491 -10.0910116 21.58825307 -10.90625 17.41015625 C-11.12198477 11.86397485 -7.95813173 8.04938238 -4.375 4.125 C-3.199375 3.073125 -3.199375 3.073125 -2 2 C-1.34 1.34 -0.68 0.68 0 0 Z " fill="#080E0F" transform="translate(64,224)"/>
<path d="M0 0 C1.09570312 0.10183594 2.19140625 0.20367187 3.3203125 0.30859375 C4.16335937 0.39238281 5.00640625 0.47617187 5.875 0.5625 C5.875 0.8925 5.875 1.2225 5.875 1.5625 C5.21113281 1.58828125 4.54726562 1.6140625 3.86328125 1.640625 C-1.75872487 2.00174656 -4.93207422 2.50060315 -9.125 6.5625 C-9.785 6.5625 -10.445 6.5625 -11.125 6.5625 C-11.49044911 8.45619084 -11.84189175 10.35258782 -12.1875 12.25 C-12.38472656 13.30574219 -12.58195313 14.36148437 -12.78515625 15.44921875 C-13.11534946 18.47409216 -12.89974558 20.64230511 -12.125 23.5625 C-13.115 23.2325 -14.105 22.9025 -15.125 22.5625 C-16.49699099 17.21173513 -16.10030468 12.67349013 -14.125 7.5625 C-10.02896996 1.43556927 -7.44078178 -0.71241528 0 0 Z " fill="#101816" transform="translate(240.125,271.4375)"/>
<path d="M0 0 C1.32 0 2.64 0 4 0 C6.94444482 8.83333446 5.0334805 20.27793007 4.125 29.4375 C4.04660889 30.27216797 3.96821777 31.10683594 3.88745117 31.96679688 C3.66771696 33.98759324 3.34345407 35.99651794 3 38 C2.01 38.495 2.01 38.495 1 39 C0.27840576 40.64363134 -0.39351421 42.31050386 -1 44 C-2.21719985 40.34840044 -1.32304635 39.26484261 0.22119141 35.90917969 C4.44770715 25.54825395 3.2448549 11.99126447 3 1 C2.01 0.67 1.02 0.34 0 0 Z " fill="#7A9B85" transform="translate(285,123)"/>
<path d="M0 0 C3.05516083 1.38193528 5.32959161 3.00476308 7.8125 5.25 C8.50214844 5.86617187 9.19179687 6.48234375 9.90234375 7.1171875 C10.59457031 7.73851562 11.28679687 8.35984375 12 9 C13.28768848 10.1295513 14.5790635 11.25492127 15.875 12.375 C16.42929688 12.85710937 16.98359375 13.33921875 17.5546875 13.8359375 C19.01360037 15.0954428 19.01360037 15.0954428 21 16 C21 16.66 21 17.32 21 18 C16.0218368 17.60578081 13.36640919 15.02152113 9.9375 11.6875 C9.42123047 11.20087891 8.90496094 10.71425781 8.37304688 10.21289062 C6.90302325 8.82151795 5.45105888 7.41113979 4 6 C3.21753906 5.26394531 2.43507813 4.52789062 1.62890625 3.76953125 C0 2 0 2 0 0 Z " fill="#ACC1B6" transform="translate(99,190)"/>
<path d="M0 0 C0.33 0.66 0.66 1.32 1 2 C-1.54349528 8.73278163 -6.66036801 12.83018401 -13 16 C-13.66 15.67 -14.32 15.34 -15 15 C-13.6875 13 -13.6875 13 -12 11 C-11.01 11 -10.02 11 -9 11 C-8.71125 10.21625 -8.4225 9.4325 -8.125 8.625 C-7 6 -7 6 -5 4 C-4.01 4 -3.02 4 -2 4 C-1.34 2.68 -0.68 1.36 0 0 Z " fill="#8BAF95" transform="translate(268,188)"/>
<path d="M0 0 C2.00544379 6.36576475 1.05868365 14.17531372 -1.5625 20.25 C-2.036875 21.1575 -2.51125 22.065 -3 23 C-3.66 23 -4.32 23 -5 23 C-5.12375 23.969375 -5.2475 24.93875 -5.375 25.9375 C-5.58125 26.948125 -5.7875 27.95875 -6 29 C-6.66 29.33 -7.32 29.66 -8 30 C-5.29020204 18.46894486 -5.29020204 18.46894486 -3.4375 13.875 C-1.63955207 9.38959305 -0.82659055 4.74560223 0 0 Z " fill="#92B39A" transform="translate(287,141)"/>
<path d="M0 0 C1.32 0 2.64 0 4 0 C4 0.66 4 1.32 4 2 C5.11375 2.1546875 5.11375 2.1546875 6.25 2.3125 C9.22365686 3.05591421 10.76701758 3.92651632 13 6 C13.33 6.99 13.66 7.98 14 9 C15.40105576 10.42857119 15.40105576 10.42857119 17.0625 11.6875 C18.5165625 12.8321875 18.5165625 12.8321875 20 14 C16.0190051 14 14.56203773 12.52101707 11.375 10.1875 C10.39273438 9.47980469 9.41046875 8.77210938 8.3984375 8.04296875 C6 6 6 6 5 3 C3.67696283 2.6278958 2.34262065 2.29369827 1 2 C0.67 1.34 0.34 0.68 0 0 Z " fill="#62826B" transform="translate(123,148)"/>
<path d="M0 0 C4.62186951 -0.36974956 8.05541223 -0.44556027 12.3125 1.5625 C16.16327565 5.05506396 18.72813869 8.246308 19.2421875 13.453125 C19.24910088 15.65157876 19.17882026 17.80945187 19 20 C18.34 20.33 17.68 20.66 17 21 C16.98582031 20.27554687 16.97164062 19.55109375 16.95703125 18.8046875 C16.72066947 12.17672698 16.72066947 12.17672698 13.75 6.4375 C9.42882994 2.60737199 5.64120725 1.7871452 0 1 C0 0.67 0 0.34 0 0 Z " fill="#232F2F" transform="translate(126,271)"/>
<path d="M0 0 C0.66 0 1.32 0 2 0 C5.77852116 8.08897006 8.31624668 14.98696953 8 24 C5.91648385 20.41272872 5.19858621 16.79305958 4.375 12.75 C4.11460937 11.48671875 3.85421875 10.2234375 3.5859375 8.921875 C3.39257812 7.95765625 3.19921875 6.9934375 3 6 C2.34 6 1.68 6 1 6 C0.67 4.02 0.34 2.04 0 0 Z " fill="#8EB59D" transform="translate(156,185)"/>
<path d="M0 0 C4.20710722 2.02564422 8.1168486 4.4112324 12 7 C13.1875 10.625 13.1875 10.625 14 14 C12 14 12 14 9.8125 12 C0 1.7761976 0 1.7761976 0 0 Z " fill="#7C9E86" transform="translate(131,156)"/>
<path d="M0 0 C4.43458973 1.3937282 6.87378374 3.60582235 10 7 C9.01 7.66 8.02 8.32 7 9 C0.25998646 5.56872038 0.25998646 5.56872038 -1 2.8125 C-1 1 -1 1 0 0 Z " fill="#4B6557" transform="translate(124,141)"/>
<path d="M0 0 C4.42326378 1.35155282 6.40412982 3.19890438 9 7 C9.96070434 9.88211302 10.10581883 11.69850044 10.0625 14.6875 C10.05347656 15.49574219 10.04445313 16.30398437 10.03515625 17.13671875 C10.02355469 17.75160156 10.01195312 18.36648437 10 19 C9.34 19 8.68 19 8 19 C7.92523438 18.21496094 7.85046875 17.42992187 7.7734375 16.62109375 C6.83787741 9.14578517 5.46337578 5.2258377 0 0 Z " fill="#1F3132" transform="translate(309,226)"/>
<path d="M0 0 C7.48116133 0.28230797 12.65074114 3.18344183 19 7 C15.90995124 8.54502438 13.84766606 7.21223539 10.625 6.1875 C9.48289062 5.83042969 8.34078125 5.47335938 7.1640625 5.10546875 C4.63109253 4.22049282 2.34941847 3.27887064 0 2 C0 1.34 0 0.68 0 0 Z " fill="#859D8B" transform="translate(87,129)"/>
<path d="M0 0 C2.18742014 3.2811302 2.54442806 5.33084356 3.125 9.1875 C3.29257813 10.27417969 3.46015625 11.36085937 3.6328125 12.48046875 C3.75398437 13.31191406 3.87515625 14.14335937 4 15 C1.36 15 -1.28 15 -4 15 C-2.68 14.67 -1.36 14.34 0 14 C0 9.38 0 4.76 0 0 Z " fill="#8AB29C" transform="translate(164,210)"/>
<path d="M0 0 C-1.20783751 3.62351253 -2.29653142 4.15215236 -5.4375 6.1875 C-6.24058594 6.71730469 -7.04367188 7.24710938 -7.87109375 7.79296875 C-10 9 -10 9 -12 9 C-9.94195865 3.44328837 -5.88351438 0 0 0 Z " fill="#7D9F8B" transform="translate(261,201)"/>
<path d="M0 0 C5.98141636 0.29907082 9.72922931 3.05920055 14 7 C16 9.875 16 9.875 17 12 C13.7259616 10.61482991 11.33774182 8.61638489 8.66015625 6.30859375 C5.96079078 4.18085861 3.02044796 2.6310419 0 1 C0 0.67 0 0.34 0 0 Z " fill="#708B75" transform="translate(106,136)"/>
<path d="M0 0 C0.33 0 0.66 0 1 0 C1.60849064 3.39016215 1.33276399 5.44986599 -0.453125 8.40234375 C-2.21625617 10.74701188 -3.88631036 12.96325409 -6 15 C-6.99 15 -7.98 15 -9 15 C-8.60167969 14.41992188 -8.20335937 13.83984375 -7.79296875 13.2421875 C-4.87248393 8.9360712 -2.18115554 4.725837 0 0 Z " fill="#0F1917" transform="translate(341,300)"/>
<path d="M0 0 C-0.66 0 -1.32 0 -2 0 C-1.95875 1.27875 -1.9175 2.5575 -1.875 3.875 C-1.8046875 6.0546875 -1.8046875 6.0546875 -2 8 C-2.66 8.66 -3.32 9.32 -4 10 C-4.10957031 9.36191406 -4.21914063 8.72382813 -4.33203125 8.06640625 C-4.49058594 7.24011719 -4.64914062 6.41382813 -4.8125 5.5625 C-5.03873047 4.32693359 -5.03873047 4.32693359 -5.26953125 3.06640625 C-5.51058594 2.38449219 -5.75164062 1.70257813 -6 1 C-6.99 0.67 -7.98 0.34 -9 0 C-5.62182575 -0.84454356 -3.32534757 -1.10844919 0 0 Z " fill="#4E7162" transform="translate(295,122)"/>
<path d="M0 0 C-1.175625 0.5775 -2.35125 1.155 -3.5625 1.75 C-6.39577157 3.1590871 -9.14929308 4.6432675 -11.875 6.25 C-15 8 -15 8 -17 8 C-16 5 -16 5 -13.41796875 3.359375 C-12.35191406 2.82828125 -11.28585938 2.2971875 -10.1875 1.75 C-9.12917969 1.20859375 -8.07085937 0.6671875 -6.98046875 0.109375 C-3.97572265 -1.00903639 -2.89774959 -1.20681097 0 0 Z " fill="#1C261F" transform="translate(52,35)"/>
<path d="M0 0 C0.99 0 1.98 0 3 0 C2.34 3.96 1.68 7.92 1 12 C0.34 10.68 -0.32 9.36 -1 8 C-1.66 7.34 -2.32 6.68 -3 6 C-2.01 4.02 -1.02 2.04 0 0 Z " fill="#638472" transform="translate(286,161)"/>
<path d="M0 0 C1.65 0 3.3 0 5 0 C5 1.98 5 3.96 5 6 C3.0625 6.5625 3.0625 6.5625 1 7 C0 6 0 6 -0.0625 2.9375 C-0.041875 1.968125 -0.02125 0.99875 0 0 Z " fill="#BEC7CC" transform="translate(126,285)"/>
<path d="M0 0 C0.83595703 0.01353516 1.67191406 0.02707031 2.53320312 0.04101562 C4.58491498 0.07618783 6.63629275 0.12998952 8.6875 0.1875 C8.6875 0.5175 8.6875 0.8475 8.6875 1.1875 C7.86507812 1.22488281 7.04265625 1.26226562 6.1953125 1.30078125 C-1.04729187 1.72730876 -7.4790378 2.73485781 -14.3125 5.1875 C-14.3125 4.5275 -14.3125 3.8675 -14.3125 3.1875 C-9.86725399 -0.55157658 -5.49375948 -0.16910546 0 0 Z " fill="#040D11" transform="translate(64.3125,48.8125)"/>
<path d="M0 0 C0.33 0 0.66 0 1 0 C1.73030908 6.21324498 2.23180249 11.84098757 1 18 C0.67 18 0.34 18 0 18 C-0.19620767 15.93831015 -0.38160753 13.87559002 -0.5625 11.8125 C-0.66691406 10.66394531 -0.77132812 9.51539063 -0.87890625 8.33203125 C-0.98859985 5.31368801 -0.74002389 2.91076064 0 0 Z " fill="#58726E" transform="translate(167,191)"/>
<path d="M0 0 C0.66 0.33 1.32 0.66 2 1 C-0.31 3.64 -2.62 6.28 -5 9 C-5.99 8.34 -6.98 7.68 -8 7 C-5.36 4.69 -2.72 2.38 0 0 Z " fill="#9EB9A9" transform="translate(231,151)"/>
<path d="M0 0 C0.66 0.33 1.32 0.66 2 1 C1.38125 1.7425 0.7625 2.485 0.125 3.25 C-1.60437281 5.48801188 -2.86106661 7.43739987 -4 10 C-4.99 10 -5.98 10 -7 10 C-5.11164466 3.46338535 -5.11164466 3.46338535 -2 1 C-1.34 0.67 -0.68 0.34 0 0 Z " fill="#0D1716" transform="translate(293,228)"/>
<path d="M0 0 C3.21524305 1.40844718 5.32183868 3.10344786 7.75 5.625 C8.67039062 6.57246094 8.67039062 6.57246094 9.609375 7.5390625 C10.29773438 8.26222656 10.29773438 8.26222656 11 9 C10.34 9.66 9.68 10.32 9 11 C7.49403892 9.54782324 5.99537896 8.08807139 4.5 6.625 C3.6646875 5.81289062 2.829375 5.00078125 1.96875 4.1640625 C0 2 0 2 0 0 Z " fill="#BAD0C4" transform="translate(99,190)"/>
<path d="M0 0 C2.4375 0.625 2.4375 0.625 5 2 C5.8125 5.125 5.8125 5.125 6 8 C4.125 7.6875 4.125 7.6875 2 7 C0 4 0 4 0 0 Z " fill="#688974" transform="translate(143,163)"/>
<path d="M0 0 C0.66 0.33 1.32 0.66 2 1 C1.67 1.61875 1.34 2.2375 1 2.875 C-0.40387684 7.26211512 -0.15967523 11.43151427 0 16 C-0.33 16 -0.66 16 -1 16 C-1.22127098 13.70954632 -1.4266504 11.41755236 -1.625 9.125 C-1.74101563 7.84882812 -1.85703125 6.57265625 -1.9765625 5.2578125 C-1.98816406 3.64519531 -1.98816406 3.64519531 -2 2 C-1.34 1.34 -0.68 0.68 0 0 Z " fill="#0E1212" transform="translate(59,93)"/>
<path d="M0 0 C0.99 0 1.98 0 3 0 C3 2.31 3 4.62 3 7 C1.68 6.67 0.36 6.34 -1 6 C-1.042721 4.33388095 -1.04063832 2.66617115 -1 1 C-0.67 0.67 -0.34 0.34 0 0 Z " fill="#B5BDBC" transform="translate(69,286)"/>
<path d="M0 0 C2.125 0 2.125 0 5 1 C7.25484692 3.49775783 9.14265083 6.19801963 11 9 C10.34 9.66 9.68 10.32 9 11 C8.443125 10.113125 7.88625 9.22625 7.3125 8.3125 C5.22146208 5.15720622 2.75433765 2.60131889 0 0 Z " fill="#273539" transform="translate(75,225)"/>
<path d="M0 0 C2.0625 0.4375 2.0625 0.4375 4 1 C4 2.65 4 4.3 4 6 C2.68 5.67 1.36 5.34 0 5 C-0.5625 3.0625 -0.5625 3.0625 -1 1 C-0.67 0.67 -0.34 0.34 0 0 Z " fill="#B9BEBD" transform="translate(301,237)"/>
<path d="M0 0 C2.3828125 0.0234375 2.3828125 0.0234375 5.125 0.375 C6.03507812 0.48585937 6.94515625 0.59671875 7.8828125 0.7109375 C8.93082031 0.85402344 8.93082031 0.85402344 10 1 C10 1.33 10 1.66 10 2 C8.14375 2.1546875 8.14375 2.1546875 6.25 2.3125 C2.7207134 2.73801682 0.62839034 3.48112592 -2 6 C-2 2 -2 2 0 0 Z " fill="#0E171A" transform="translate(64,224)"/>
<path d="M0 0 C1.24386556 3.73159669 0.77811718 6.18015204 0 10 C-0.99 10.495 -0.99 10.495 -2 11 C-2.72159424 12.64363134 -3.39351421 14.31050386 -4 16 C-5.35304209 11.94087374 -4.15216503 10.22850409 -2.5625 6.3125 C-2.08941406 5.13300781 -1.61632812 3.95351562 -1.12890625 2.73828125 C-0.75636719 1.83464844 -0.38382812 0.93101562 0 0 Z " fill="#70907A" transform="translate(288,151)"/>
<path d="M0 0 C1.32 0 2.64 0 4 0 C4 2.31 4 4.62 4 7 C3.01 6.67 2.02 6.34 1 6 C0.67 4.02 0.34 2.04 0 0 Z " fill="#798889" transform="translate(300,286)"/>
<path d="M0 0 C1.32 0 2.64 0 4 0 C4 1.98 4 3.96 4 6 C2.68 6 1.36 6 0 6 C0 4.02 0 2.04 0 0 Z " fill="#B4C3BC" transform="translate(68,237)"/>
<path d="M0 0 C0.99 0 1.98 0 3 0 C1.98823563 3.40320742 1.35156418 4.75725331 -1.625 6.8125 C-2.40875 7.204375 -3.1925 7.59625 -4 8 C-2.87548273 5.0280615 -1.77706209 2.66559313 0 0 Z " fill="#9BB4A7" transform="translate(214,169)"/>
<path d="M0 0 C1.65 0 3.3 0 5 0 C4.67 1.65 4.34 3.3 4 5 C2.68 4.67 1.36 4.34 0 4 C0 2.68 0 1.36 0 0 Z " fill="#99ABA3" transform="translate(239,286)"/>
<path d="M0 0 C0.33 0 0.66 0 1 0 C1 3.96 1 7.92 1 12 C0.01 12.33 -0.98 12.66 -2 13 C-1.34 8.71 -0.68 4.42 0 0 Z " fill="#B7D4C6" transform="translate(197,215)"/>
<path d="M0 0 C2.39763185 2.39763185 2.34280586 3.33273498 2.625 6.625 C2.69976562 7.44226563 2.77453125 8.25953125 2.8515625 9.1015625 C2.90054687 9.72804688 2.94953125 10.35453125 3 11 C2.01 11 1.02 11 0 11 C0 7.37 0 3.74 0 0 Z " fill="#070D0F" transform="translate(9,284)"/>
<path d="M0 0 C0 3 0 3 -1.75 4.82421875 C-2.4925 5.43910156 -3.235 6.05398437 -4 6.6875 C-4.7425 7.31011719 -5.485 7.93273437 -6.25 8.57421875 C-6.8275 9.04472656 -7.405 9.51523438 -8 10 C-8.66 9.67 -9.32 9.34 -10 9 C-7.85177953 5.7776693 -6.2725249 4.91562433 -3 3 C-1.24850835 1.41754725 -1.24850835 1.41754725 0 0 Z " fill="#030706" transform="translate(283,208)"/>
<path d="M0 0 C0.66 0.33 1.32 0.66 2 1 C-0.31 3.31 -2.62 5.62 -5 8 C-5.33 7.01 -5.66 6.02 -6 5 C-2.25 1.125 -2.25 1.125 0 0 Z " fill="#0D1817" transform="translate(224,132)"/>
<path d="M0 0 C2 1 2 1 3.125 3.3125 C4 6 4 6 4 10 C3.34 10 2.68 10 2 10 C0.68373308 6.38026598 0 3.90432869 0 0 Z " fill="#080D0E" transform="translate(10,297)"/>
<path d="M0 0 C1.9453125 0.77734375 1.9453125 0.77734375 4.125 1.9375 C5.21167969 2.50791016 5.21167969 2.50791016 6.3203125 3.08984375 C6.87460938 3.39019531 7.42890625 3.69054687 8 4 C8 4.66 8 5.32 8 6 C4.08788267 4.84414715 1.1254959 3.64465038 -2 1 C-1.34 0.67 -0.68 0.34 0 0 Z " fill="#9CB5A3" transform="translate(124,209)"/>
<path d="M0 0 C3.21043882 1.38188453 5.04936365 2.92421903 7.25 5.625 C8.03117188 6.57246094 8.03117188 6.57246094 8.828125 7.5390625 C9.40820312 8.26222656 9.40820312 8.26222656 10 9 C7 9 7 9 5.17578125 7.28515625 C4.56089844 6.55167969 3.94601563 5.81820312 3.3125 5.0625 C2.68988281 4.33160156 2.06726563 3.60070312 1.42578125 2.84765625 C0 1 0 1 0 0 Z " fill="#8EAF96" transform="translate(131,156)"/>
<path d="M0 0 C0.99 0.33 1.98 0.66 3 1 C1.90554162 1.86657116 0.79902219 2.71792724 -0.3125 3.5625 C-0.92738281 4.03816406 -1.54226563 4.51382813 -2.17578125 5.00390625 C-2.77777344 5.33261719 -3.37976563 5.66132813 -4 6 C-4.99 5.67 -5.98 5.34 -7 5 C-5.90554162 4.13342884 -4.79902219 3.28207276 -3.6875 2.4375 C-3.07261719 1.96183594 -2.45773438 1.48617187 -1.82421875 0.99609375 C-1.22222656 0.66738281 -0.62023437 0.33867187 0 0 Z " fill="#203630" transform="translate(258,204)"/>
<path d="M0 0 C1.32 0 2.64 0 4 0 C4 0.66 4 1.32 4 2 C4.66 2 5.32 2 6 2 C7.38938077 3.96147874 8.7260411 5.96166576 10 8 C8.0625 7.1875 8.0625 7.1875 6 6 C5.67 5.01 5.34 4.02 5 3 C3.67696283 2.6278958 2.34262065 2.29369827 1 2 C0.67 1.34 0.34 0.68 0 0 Z " fill="#6F8E78" transform="translate(123,148)"/>
<path d="M0 0 C3.84685385 1.24762828 6.02929405 2.3870391 8 6 C7.67 6.99 7.34 7.98 7 9 C5.83037314 7.69013727 4.66437056 6.3770374 3.5 5.0625 C2.8503125 4.33160156 2.200625 3.60070312 1.53125 2.84765625 C0 1 0 1 0 0 Z " fill="#212E33" transform="translate(77,275)"/>
<path d="M0 0 C0 3 0 3 -2.5 5.6875 C-3.325 6.450625 -4.15 7.21375 -5 8 C-4.64950425 4.75791433 -4.43778819 3.38472296 -1.9375 1.1875 C-1.298125 0.795625 -0.65875 0.40375 0 0 Z " fill="#759981" transform="translate(273,185)"/>
<path d="M0 0 C0.99 0 1.98 0 3 0 C2.34 1.32 1.68 2.64 1 4 C0.34 4 -0.32 4 -1 4 C-1 4.66 -1 5.32 -1 6 C-1.99 6.33 -2.98 6.66 -4 7 C-3.34 5.35 -2.68 3.7 -2 2 C-1.34 2 -0.68 2 0 2 C0 1.34 0 0.68 0 0 Z " fill="#1F2624" transform="translate(167,78)"/>
<path d="M0 0 C1.98 0.99 3.96 1.98 6 3 C6 3.66 6 4.32 6 5 C3.03 4.01 0.06 3.02 -3 2 C-2.01 1.34 -1.02 0.68 0 0 Z " fill="#8FA79C" transform="translate(135,214)"/>
<path d="M0 0 C2 4 2 4 1.25 6.6875 C0 9 0 9 -2 10 C-1.34 6.7 -0.68 3.4 0 0 Z " fill="#9DB9AE" transform="translate(204,186)"/>
<path d="M0 0 C0.66 0 1.32 0 2 0 C2 0.66 2 1.32 2 2 C2.99 2 3.98 2 5 2 C5 2.66 5 3.32 5 4 C5.99 4.33 6.98 4.66 8 5 C6.68 5.33 5.36 5.66 4 6 C0 1.125 0 1.125 0 0 Z " fill="#617D68" transform="translate(119,142)"/>
<path d="M0 0 C4.875 4.625 4.875 4.625 6 8 C2.83884224 6.63016497 2.0072908 6.0109362 0 3 C0 2.01 0 1.02 0 0 Z " fill="#B4C9BD" transform="translate(93,181)"/>
<path d="M0 0 C1.61949011 2.57213134 2.04408751 3.67669159 1.625 6.75 C1.41875 7.4925 1.2125 8.235 1 9 C0.34 9 -0.32 9 -1 9 C-1.125 2.25 -1.125 2.25 0 0 Z " fill="#B4CBB3" transform="translate(81,140)"/>
</svg>
